<?xml version="1.0" encoding="UTF-8"?>
<svg id="Layer_1" xmlns="http://www.w3.org/2000/svg" viewBox="0 0 129.32 139.08">
  <defs>
    <style>
      .cls-1 {
        fill: #00b92b;
      }
    </style>
  </defs>
  <polygon class="cls-1" points="65.34 48.73 64.38 48.73 60.49 61.74 49.91 95.95 79.67 95.95 69.08 61.74 65.34 48.73"/>
  <path class="cls-1" d="M44.77,112.56l-6.23,20.13c17.36-1.96,33.38-8.31,46.95-17.92l-.68-2.21h-40.04Z"/>
  <path class="cls-1" d="M125.63,8.99c-7.42-1.74-15.17-2.66-23.11-2.66C46.62,6.33,1.29,51.66,1.29,107.57c0,7.96.92,15.69,2.66,23.11,3.96.92,8.02,1.63,12.15,2.07L49.42,32.39h30.75l22.31,67.23c16.05-17.91,25.81-41.58,25.81-67.52,0-7.96-.91-15.69-2.65-23.11Z"/>
</svg>